<svg width="1280" height="280" viewBox="0 0 1280 280" xmlns="http://www.w3.org/2000/svg" role="img" aria-label="Village Milestone Tracker wordmark">
  <title>Village Milestone Tracker — Wordmark (Horizontal)</title>

  <!-- Mark (left, scaled to 240px content area) -->
  <g transform="translate(40, 40) scale(0.46875)">
    <rect x="80" y="396" width="352" height="6" rx="3" fill="#7068D5" opacity="0.25"/>

    <rect x="110" y="316" width="56" height="80"  rx="10" fill="#7068D5" opacity="0.4"/>
    <rect x="190" y="256" width="56" height="140" rx="10" fill="#7068D5" opacity="0.6"/>
    <rect x="270" y="196" width="56" height="200" rx="10" fill="#7068D5" opacity="0.8"/>
    <rect x="350" y="136" width="56" height="260" rx="10" fill="#7068D5"/>

    <path d="M138 326 L218 266 L298 206 L378 146"
          stroke="#FFC442" stroke-width="6" stroke-linecap="round" stroke-linejoin="round" fill="none"/>

    <circle cx="138" cy="326" r="8" fill="#FFC442" opacity="0.7"/>
    <circle cx="218" cy="266" r="8" fill="#FFC442" opacity="0.85"/>
    <circle cx="298" cy="206" r="8" fill="#FFC442"/>

    <g transform="translate(378, 130)">
      <path d="M0 -76 C-22 -76 -38 -60 -38 -38 C-38 -20 -16 -8 -3 14 Q0 18 3 14 C16 -8 38 -20 38 -38 C38 -60 22 -76 0 -76 Z" fill="#FFC442"/>
      <circle cx="0" cy="-42" r="11" fill="#7068D5"/>
    </g>
  </g>

  <!-- Wordmark text -->
  <g font-family="Product Sans, -apple-system, BlinkMacSystemFont, Segoe UI, Roboto, sans-serif">
    <!-- "Village" overline -->
    <text x="340" y="64" font-size="34" font-weight="400" letter-spacing="6" fill="#8A8B8D">VILLAGE</text>
    <!-- "Milestone Tracker" main — Tracker baseline aligns with mark ground line (y=228) -->
    <text x="340" y="146" font-size="78" font-weight="700" letter-spacing="-1.5" fill="#58595B">Milestone</text>
    <text x="340" y="228" font-size="78" font-weight="700" letter-spacing="-1.5" fill="#7068D5">Tracker</text>
  </g>
</svg>
